<svg width="150" height="100" viewBox="0 0 150 100" fill="none" xmlns="http://www.w3.org/2000/svg">
<g clip-path="url(#clip0_2443_247)">
<path d="M43.467 1.19594e-05C47.542 1.19594e-05 51.6171 0.388711 55.4981 1.16611C58.7969 1.94352 61.9017 3.30397 64.8124 5.24748C67.3351 7.19099 69.4696 9.71756 70.8279 12.6328C72.3803 16.3255 73.1565 20.2125 72.9625 24.0995C73.1565 28.3752 71.9922 32.651 69.8577 36.3436C67.5291 39.8419 64.2303 42.5629 60.5433 44.312C65.7827 45.6725 70.2458 48.9764 73.1565 53.2521C76.0673 57.9166 77.4256 63.3584 77.4256 68.8002C77.4256 73.2703 76.6494 77.546 74.7089 81.433C72.9625 84.9313 70.4398 87.8466 67.5291 90.3732C64.4243 92.7054 60.7374 94.4545 57.0505 95.4263C53.1695 96.5924 49.0944 96.9811 45.0194 96.9811H0V-0.194336H43.467V1.19594e-05ZM40.7503 39.2589C43.8551 39.4532 47.1539 38.4815 49.6766 36.538C52.1992 34.4001 53.5576 31.0961 53.1695 27.5978C53.1695 25.6543 52.7814 23.7108 52.0052 21.9617C51.229 20.6012 50.2587 19.4351 48.9004 18.6577C47.542 17.8803 45.9897 17.1029 44.4373 16.9085C42.6908 16.5198 40.9444 16.5198 39.1979 16.5198H20.1811V39.2589H40.7503ZM41.9146 80.85C43.8551 80.85 45.7956 80.6556 47.542 80.2669C49.2885 79.8782 50.8409 79.1008 52.3933 78.1291C53.7516 77.1573 54.9159 75.7968 55.6921 74.242C56.6623 72.2985 57.0505 70.1607 56.8564 68.0228C57.2445 63.9414 55.6921 60.0544 52.7814 57.3335C49.6766 55.0013 45.9896 54.0295 42.1087 54.2239H20.1811V81.0443H41.9146V80.85Z" fill="currentColor"/>
<path d="M106.145 80.4612C109.444 83.3765 113.713 84.9313 117.982 84.737C121.475 84.737 124.774 83.7652 127.49 81.8217C129.819 80.2669 131.371 78.129 132.342 75.6025H148.448C146.701 82.7935 142.432 89.207 136.611 93.6771C130.983 97.5641 124.191 99.3133 117.206 99.1189C112.354 99.1189 107.503 98.3415 102.846 96.398C98.771 94.6489 95.0841 92.1223 92.1733 88.8183C89.2626 85.32 86.934 81.433 85.3816 77.1573C83.6352 72.2985 82.859 67.2454 83.053 62.1923C83.053 57.1392 83.8292 52.2804 85.5757 47.4216C90.2328 33.8171 103.04 24.6826 117.4 24.8769C122.639 24.6826 127.684 26.043 132.342 28.3752C136.417 30.7074 140.103 33.8171 142.82 37.7041C145.537 41.7854 147.671 46.2555 148.642 51.1143C149.806 56.1674 150.194 61.6092 150 66.8567H101.876C101.294 71.7155 102.846 76.5742 106.145 80.4612ZM127.102 43.3402C124.385 40.6193 120.699 39.2589 116.818 39.4532C114.295 39.4532 111.772 39.8419 109.638 41.008C107.891 41.9798 106.339 43.3402 104.981 44.895C103.816 46.4499 103.04 48.0047 102.458 49.9482C102.07 51.503 101.682 53.0578 101.682 54.6126H131.565C131.177 50.5312 129.625 46.6442 127.102 43.3402Z" fill="currentColor"/>
<path d="M135.058 6.4136H97.8008V15.9368H135.058V6.4136Z" fill="currentColor"/>
</g>
<defs>
<clipPath id="clip0_2443_247">
<rect width="150" height="99.1189" fill="white"/>
</clipPath>
</defs>
</svg>